<?xml version="1.0" encoding="utf-8"?>
<!-- Generator: Adobe Illustrator 23.0.3, SVG Export Plug-In . SVG Version: 6.00 Build 0)  -->
<svg version="1.1" id="Layer_1" xmlns="http://www.w3.org/2000/svg" xmlns:xlink="http://www.w3.org/1999/xlink" x="0px" y="0px"
	 viewBox="0 0 106.6 106.6" style="enable-background:new 0 0 106.6 106.6;" xml:space="preserve">
<style type="text/css">
	.st0{fill:url(#SVGID_1_);}
	.st1{fill:url(#SVGID_2_);}
	.st2{fill:url(#SVGID_3_);}
	.st3{fill:url(#SVGID_4_);}
	.st4{fill:url(#SVGID_5_);}
	.st5{fill:url(#SVGID_6_);}
	.st6{fill:url(#SVGID_7_);}
	.st7{fill:url(#SVGID_8_);}
	.st8{fill:url(#SVGID_9_);}
	.st9{fill:url(#SVGID_10_);}
	.st10{fill:#494949;}
	.st11{fill:#505050;}
	.st12{fill:#515151;}
	.st13{fill:#4A4A4A;}
	.st14{fill:#4D4D4D;}
	.st15{fill:#535353;}
	.st16{fill:#525252;}
	.st17{fill:#4F4F4F;}
	.st18{fill:#4C4C4C;}
	.st19{fill:#4E4E4E;}
	.st20{fill:#4B4B4B;}
	.st21{fill:#FFFFFF;}
	.st22{fill:url(#SVGID_11_);}
	.st23{fill:url(#SVGID_12_);}
	.st24{fill:url(#SVGID_13_);}
	.st25{fill:url(#SVGID_14_);}
	.st26{fill:url(#SVGID_15_);}
	.st27{fill:url(#SVGID_16_);}
	.st28{fill:#079EE3;}
	.st29{fill:#D63777;}
	.st30{fill:#003263;}
	.st31{fill:#FEFEFE;}
	.st32{fill:#F9F9F9;}
	.st33{fill:#FAFAFA;}
	.st34{fill:#F8F8F8;}
	.st35{fill:#EDEDED;}
	.st36{fill:#FCFCFC;}
	.st37{fill:#FDFDFD;}
	.st38{fill:#FBFBFB;}
	.st39{fill:#CFCFCF;}
	.st40{fill:#545454;}
	.st41{fill:#9D9D9D;}
	.st42{fill:#E7E7E7;}
	.st43{fill:#555555;}
	.st44{fill:#F5F5F5;}
	.st45{fill:#F4F4F4;}
	.st46{fill:#EBEBEB;}
	.st47{fill:#DFDFDF;}
	.st48{fill:#DADADA;}
	.st49{fill:#E3E3E3;}
	.st50{fill:#F1F1F1;}
	.st51{fill:#EEEEEE;}
	.st52{fill:#ECECEC;}
	.st53{fill:#1B83B8;}
	.st54{fill:#F7AD28;}
	.st55{fill:#91BF3B;}
	.st56{fill:#91BE3F;}
	.st57{fill:#033661;}
</style>
<g>
	<path class="st10" d="M39.3,30.1c5.6-2.4,8.4-7.8,7.3-13.3C45.4,11.1,40.7,7.1,35,7c-5.8-0.1-10.8,3.8-12,9.3
		c-1.3,5.6,1.3,11.1,6.8,13.6c2,0.9,2.8,1.8,2.7,4c-0.2,5.2-0.1,10.5,0,15.8c0,1.6-0.2,2.6-2.1,2.5c-3-0.2-3.7,1.5-3.7,4.1
		c0.1,6.5,0,13,0,19.4c0,6.7,0.1,13.4,0,20.2c0,2.6,0.8,3.9,3.6,3.8c3-0.1,6.1-0.1,9.2,0c2.6,0.1,3.4-1.1,3.4-3.5
		c0-13.4,0-26.9,0-40.3c0-2.2-0.6-3.7-3-3.6c-2.5,0.2-2.7-1.1-2.7-3.1c0.1-5.1,0-10.3-0.1-15.4C37,31.8,37.5,30.9,39.3,30.1z
		 M38.3,59.8c-0.3,3.1,0,6.3-0.1,9.5c0,1.9,0.7,3.9-2.2,4.9c-1.7,0.6-1.3,2.8,0.5,3.7c0.9,0.5,1.9,0.5,1.7,1.8
		c-0.1,1.3-1.1,1.1-1.9,1.1C35,81,34.2,81.8,34.1,83c-0.1,1.4,0.7,2.3,2.2,2.4c1,0.1,2,0,1.9,1.5c-0.1,1.8-1.5,1.2-2.4,1.3
		c-1.6,0.1-3.4,0-3.4,2.3c0,2.2,1.7,2.3,3.4,2.3c0.8,0,2.2-0.6,2.3,0.9c0.1,1.9-1.5,1-2.4,1.2c-3.5,0.7-4.6-0.7-4.4-4.2
		c0.3-5,0.1-10,0.1-15c0,0,0,0,0,0c0-5.4,0.2-10.7-0.1-16.1c-0.2-3.1,1.4-2.8,3.5-2.9C37.2,56.6,38.5,57,38.3,59.8z M34.8,26.4
		c-4,0-7.3-3.1-7.5-7.1c-0.2-4,3.2-7.6,7.2-7.8c4-0.1,7.5,3.2,7.5,7.3C42.1,23.1,38.9,26.4,34.8,26.4z"/>
	<path class="st10" d="M83.9,55.1c0-1.3-0.3-2.9-1.8-2.7c-4.9,0.4-3.9-2.9-3.9-5.7c0-2.2-0.1-4.4,0-6.6c0.2-2.6-0.7-4.7-2.5-6.6
		c-2.7-2.8-5.2-5.8-7.8-8.7c-3.1-3.5-3.1-3.9,0.9-6.2c4-2.3,8.1-4.6,12.1-6.8c1.4-0.8,2.6-1.8,1.7-3.5c-1-1.9-2.5-1.4-4.1-0.6
		c-4.5,2.5-8.9,5-13.4,7.5c-5.2,2.9-5.8,7-1.8,11.5c2.8,3.2,5.7,6.4,8.5,9.6c0.9,1,1.6,2.1,1.5,3.5c-0.1,3.3-0.1,6.6,0,9.9
		c0,1.7-0.4,2.6-2.2,2.4c-2.9-0.3-3.5,1.5-3.5,3.9c0,6.6,0,13.2,0,19.8c0,0,0,0,0.1,0c0,6.7,0,13.4,0,20.2c0,2.4,0.7,3.7,3.4,3.6
		c3.2-0.1,6.4-0.1,9.5,0c2.1,0.1,3.1-0.8,3.1-3C83.9,82.7,83.9,68.9,83.9,55.1z M79.4,59.3c-0.3,3.4,0,6.8-0.1,10.3
		c0,1.8,0.5,3.5-2.2,4.6c-1.8,0.7-1.4,3,0.8,3.8c1,0.4,1.4,0.7,1.3,1.8c-0.1,1-0.8,1.1-1.6,1.1c-1.4,0.1-2.3,0.8-2.4,2.2
		c0,1.5,0.8,2.2,2.3,2.3c0.9,0,1.7,0.1,1.7,1.4c0,1.5-1,1.4-2,1.4c-0.6,0-1.2-0.1-1.8,0c-1.2,0.2-2,0.9-2,2.2c0,1.3,0.7,2.1,1.9,2.3
		c1,0.1,2,0,2.9,0.1c1,0.1,1.3,1.2,0.8,1.6c-1.6,1.2-3.5,0.4-5.3,0.5c-1.5,0.1-1.2-1.2-1.2-2.1c0-5.7,0-11.5,0-17.2
		c0-5.4,0.2-10.8-0.1-16.1c-0.2-3,1.5-2.7,3.4-2.7C77.6,56.8,79.6,56.2,79.4,59.3z"/>
</g>
</svg>
