<?xml version="1.0" encoding="utf-8"?>
<!-- Generator: Adobe Illustrator 23.0.3, SVG Export Plug-In . SVG Version: 6.00 Build 0)  -->
<svg version="1.1" id="Layer_1" xmlns="http://www.w3.org/2000/svg" xmlns:xlink="http://www.w3.org/1999/xlink" x="0px" y="0px"
	 viewBox="0 0 106.6 106.6" style="enable-background:new 0 0 106.6 106.6;" xml:space="preserve">
<style type="text/css">
	.st0{fill:url(#SVGID_1_);}
	.st1{fill:url(#SVGID_2_);}
	.st2{fill:url(#SVGID_3_);}
	.st3{fill:url(#SVGID_4_);}
	.st4{fill:url(#SVGID_5_);}
	.st5{fill:url(#SVGID_6_);}
	.st6{fill:url(#SVGID_7_);}
	.st7{fill:url(#SVGID_8_);}
	.st8{fill:url(#SVGID_9_);}
	.st9{fill:url(#SVGID_10_);}
	.st10{fill:#494949;}
	.st11{fill:#505050;}
	.st12{fill:#515151;}
	.st13{fill:#4A4A4A;}
	.st14{fill:#4D4D4D;}
	.st15{fill:#535353;}
	.st16{fill:#525252;}
	.st17{fill:#4F4F4F;}
	.st18{fill:#4C4C4C;}
	.st19{fill:#4E4E4E;}
	.st20{fill:#4B4B4B;}
	.st21{fill:#FFFFFF;}
	.st22{fill:url(#SVGID_11_);}
	.st23{fill:url(#SVGID_12_);}
	.st24{fill:url(#SVGID_13_);}
	.st25{fill:url(#SVGID_14_);}
	.st26{fill:url(#SVGID_15_);}
	.st27{fill:url(#SVGID_16_);}
	.st28{fill:#079EE3;}
	.st29{fill:#D63777;}
	.st30{fill:#003263;}
	.st31{fill:#FEFEFE;}
	.st32{fill:#F9F9F9;}
	.st33{fill:#FAFAFA;}
	.st34{fill:#F8F8F8;}
	.st35{fill:#EDEDED;}
	.st36{fill:#FCFCFC;}
	.st37{fill:#FDFDFD;}
	.st38{fill:#FBFBFB;}
	.st39{fill:#CFCFCF;}
	.st40{fill:#545454;}
	.st41{fill:#9D9D9D;}
	.st42{fill:#E7E7E7;}
	.st43{fill:#555555;}
	.st44{fill:#F5F5F5;}
	.st45{fill:#F4F4F4;}
	.st46{fill:#EBEBEB;}
	.st47{fill:#DFDFDF;}
	.st48{fill:#DADADA;}
	.st49{fill:#E3E3E3;}
	.st50{fill:#F1F1F1;}
	.st51{fill:#EEEEEE;}
	.st52{fill:#ECECEC;}
	.st53{fill:#1B83B8;}
	.st54{fill:#F7AD28;}
	.st55{fill:#91BF3B;}
	.st56{fill:#91BE3F;}
	.st57{fill:#033661;}
</style>
<g>
	<path class="st10" d="M35.9,16.5c-1.6,0-3,0.4-3.1,2.3c0,1.8,1.2,2.4,2.9,2.4c1.7,0,2.9-0.6,2.9-2.5C38.6,17,37.4,16.4,35.9,16.5z"
		/>
	<path class="st10" d="M27.9,19.3c-3.3,2.5-4.9,6-5.4,10.3c0.1,1.1,0.4,2.4,2.1,2.7c1.7,0.2,2.6-0.8,2.7-2.3c0.2-3,1.4-5.3,3.7-7.2
		c1.1-0.9,1.4-2,0.4-3.2C30.4,18.2,29.1,18.4,27.9,19.3z"/>
	<path class="st10" d="M59.3,10c-4,2.1-8,2.1-12,0c-13.6-7.2-30,0.3-33.4,15.2c-2.1,9.3,2.7,18.4,11.4,19.9c4.9,0.8,5.5,3.7,6.5,7.4
		c-1.4,0-2.5,0-3.6,0c-1.6,0-3.5,0-3.5,2.2c0,2.1,1.7,2.7,3.4,2.3c5-1,7.3,1.5,8.4,6c0.2,0.9,0.8,1.8,1.1,2.7c0.8,2,2.7,4.5,2.1,6
		c-0.8,2.2-3.8,0.4-5.9,0.9c-0.1,0-0.2,0-0.4,0c-1.4,0.2-2.3,0.9-2.3,2.3c0,1.5,1,2.2,2.4,2.2c1.3,0.1,2.7,0,4,0
		c5.3,0,5.3,0,6.6,5.5c-1.1,0-2.2,0-3.3,0c-1.6-0.1-2.7,0.6-2.8,2.2c0,1.6,1.2,2.6,2.6,2.3c5.5-1.2,7.2,2.2,8.4,6.5
		c0.4,1.3,1,2.5,1.5,3.7c0.5,1.1,1.2,1.9,2.5,1.8c1.1,0,1.8-0.7,2.2-1.7c0.4-0.9,0.8-1.8,1.1-2.7c1.6-4.5,3-9.3,9.6-7.6
		c1.3,0.3,2.4-0.7,2.4-2.2c0-1.7-1.1-2.3-2.7-2.3c-1.3,0-2.5-0.1-4.1-0.2c1.3-3.1,2.5-5.8,3.5-8.5c1.5-4.2,2.9-8.4,8.9-7
		c1.4,0.3,2.6-0.6,2.6-2.4c0-1.5-1.1-2.1-2.4-2.2c-1.2-0.1-2.4-0.1-3.7-0.2c0.6-3.7,2-6.1,6.1-5.3c0.5,0.1,1,0,1.5,0
		c1.4-0.1,2.3-0.8,2.4-2.3c0-1.5-0.9-2.2-2.3-2.3c-1.1-0.1-2.2,0-3.6,0c1-4.3,2.4-6.9,7.1-7.7c7-1.2,11.2-7.6,11.2-14.8
		C93.2,12.7,74.8,1.9,59.3,10z M53.1,90.3c-0.5-1-2-1.8-0.7-3c0.3-0.3,1.4-0.2,1.6,0.1C54.9,88.6,53.7,89.4,53.1,90.3z M61.1,62.4
		c-2.7,0-5.4,0-8,0c-1.6,0-3.1,0.6-3.1,2.4c0,1.8,1.4,2.4,3.1,2.4c2.6,0,5.1,0.1,7.7,0c1.9-0.1,2.4,0.4,1.5,2.3
		c-1.7,3.8-3.2,7.6-4.8,11.4c-1.4,3.4-4.4,1.8-6.6,1.8c-2.2-0.1-2-2.7-2.7-4.2c-0.4-1,0.7-1,1.4-1.1c1.1-0.1,2.2-0.1,3.3-0.2
		c1.1-0.2,1.7-1.1,1.7-2.1c0-1-0.6-1.8-1.6-2.2c-0.2-0.1-0.5-0.2-0.7-0.1c-7.1,1.7-8.3-3.6-10-8.3c-0.8-2.3-1.8-4.5-2.9-7.2
		c9.5,0,18.5,0,27.5,0C66,62.3,65.9,62.4,61.1,62.4z M71.2,48.2c-1.1,3.2-2.7,4.5-6.3,4.3c-7.4-0.3-14.9-0.1-22.3-0.1
		c-5.9,0-5.9,0-7.6-6.4c4-0.7,8-0.3,12-0.4c7.4-0.1,14.9-0.1,22.3-0.2C71.6,45.5,72,46,71.2,48.2z M76.5,41c-7.8,0-15.6,0-23.4,0
		c0,0,0,0.1,0,0.1c-7.6,0-15.1,0-22.7,0c-8.8,0-13.8-6.3-11.8-14.8C21.4,13.8,35,8.2,46.2,14.6c4.6,2.7,9.8,2.6,14.3,0
		c11.1-6.5,24.8-0.8,27.7,11.7C90,34.5,85,40.9,76.5,41z"/>
</g>
</svg>
