<?xml version="1.0" encoding="utf-8"?>
<!-- Generator: Adobe Illustrator 23.0.3, SVG Export Plug-In . SVG Version: 6.00 Build 0)  -->
<svg version="1.1" id="Layer_1" xmlns="http://www.w3.org/2000/svg" xmlns:xlink="http://www.w3.org/1999/xlink" x="0px" y="0px"
	 viewBox="0 0 153.6 153.6" style="enable-background:new 0 0 153.6 153.6;" xml:space="preserve">
<style type="text/css">
	.st0{fill:#70D1C0;}
	.st1{fill:#66C4A3;}
	.st2{fill:#4C9AE8;}
	.st3{fill:#57B9E2;}
	.st4{fill:#E43BA0;}
	.st5{fill:#B060FF;}
	.st6{fill:#7B78EB;}
	.st7{fill:#52E3D6;}
	.st8{fill:#3F93E4;}
	.st9{fill:#F19236;}
	.st10{fill:#FF4F4F;}
	.st11{fill:#2CC6E2;}
	.st12{fill:#78D32E;}
	.st13{fill:#E23F40;}
	.st14{fill:#40A4E2;}
	.st15{fill:#37CFA0;}
	.st16{fill:#3EC1CB;}
	.st17{fill:#3FC2CC;}
	.st18{fill:#3FC2CB;}
	.st19{fill:#42C3CC;}
	.st20{fill:#40C2CC;}
	.st21{fill:#49C5CE;}
	.st22{fill:#41C2CC;}
	.st23{fill:#43C3CC;}
	.st24{fill:#42C2CC;}
	.st25{fill:#43C3CD;}
	.st26{fill:#F0F8F8;}
	.st27{fill:#F1F8F8;}
	.st28{fill:#EEF7F7;}
	.st29{fill:#EBF6F7;}
	.st30{fill:#ECF7F7;}
	.st31{fill:#E0F3F4;}
	.st32{fill:#E6F5F5;}
	.st33{fill:#E8F5F6;}
	.st34{fill:#EFF7F7;}
	.st35{fill:#3FC1CB;}
	.st36{fill:#45C4CD;}
	.st37{fill:#46C4CD;}
	.st38{fill:#44C3CD;}
	.st39{fill:#45C3CD;}
	.st40{fill:#143755;}
	.st41{fill:#DDB833;}
	.st42{fill:#E2BB3C;}
	.st43{fill:#67C7A5;}
	.st44{fill:#D573B0;}
	.st45{fill:#EF6067;}
	.st46{fill:#3BCBF2;}
	.st47{fill:#F569B0;}
	.st48{fill:#3BC6E5;}
	.st49{fill:url(#SVGID_1_);}
	.st50{fill:url(#SVGID_2_);}
	.st51{fill:url(#SVGID_3_);}
	.st52{fill:url(#SVGID_4_);}
	.st53{fill:url(#SVGID_5_);}
	.st54{fill:url(#SVGID_6_);}
	.st55{fill:url(#SVGID_7_);}
	.st56{fill:url(#SVGID_8_);}
	.st57{fill:url(#SVGID_9_);}
	.st58{fill:url(#SVGID_10_);}
	.st59{fill:url(#SVGID_11_);}
	.st60{fill:url(#SVGID_12_);}
	.st61{fill:#FFFFFF;}
	.st62{fill:url(#SVGID_13_);}
	.st63{fill:url(#SVGID_14_);}
	.st64{fill:url(#SVGID_15_);}
	.st65{fill:url(#SVGID_16_);}
	.st66{fill:url(#SVGID_17_);}
	.st67{fill:url(#SVGID_18_);}
	.st68{fill:url(#SVGID_19_);}
	.st69{fill:url(#SVGID_20_);}
	.st70{fill:url(#SVGID_21_);}
	.st71{fill:url(#SVGID_22_);}
	.st72{fill:url(#SVGID_23_);}
	.st73{fill:url(#SVGID_24_);}
	.st74{fill:url(#SVGID_25_);}
	.st75{fill:url(#SVGID_26_);}
	.st76{fill:url(#SVGID_27_);}
	.st77{fill:url(#SVGID_28_);}
	.st78{fill:url(#SVGID_29_);}
	.st79{fill:url(#SVGID_30_);}
	.st80{fill:url(#SVGID_31_);}
	.st81{fill:url(#SVGID_32_);}
	.st82{fill:url(#SVGID_33_);}
	.st83{fill:url(#SVGID_34_);}
	.st84{fill:url(#SVGID_35_);}
	.st85{fill:url(#SVGID_36_);}
	.st86{fill:url(#SVGID_37_);}
	.st87{fill:url(#SVGID_38_);}
	.st88{fill:url(#SVGID_39_);}
	.st89{fill:url(#SVGID_40_);}
	.st90{fill:url(#SVGID_41_);}
	.st91{fill:url(#SVGID_42_);}
	.st92{fill:url(#SVGID_43_);}
	.st93{fill:url(#SVGID_44_);}
	.st94{fill:url(#SVGID_45_);}
	.st95{fill:url(#SVGID_46_);}
	.st96{fill:url(#SVGID_47_);}
	.st97{fill:url(#SVGID_48_);}
	.st98{fill:url(#SVGID_49_);}
	.st99{fill:url(#SVGID_50_);}
	.st100{fill:url(#SVGID_51_);}
	.st101{fill:url(#SVGID_52_);}
	.st102{fill:url(#SVGID_53_);}
	.st103{fill:url(#SVGID_54_);}
	.st104{fill:url(#SVGID_55_);}
	.st105{fill:url(#SVGID_56_);}
	.st106{fill:url(#SVGID_57_);}
	.st107{fill:url(#SVGID_58_);}
	.st108{fill:url(#SVGID_59_);}
	.st109{fill:url(#SVGID_60_);}
	.st110{fill:url(#SVGID_61_);}
	.st111{fill:url(#SVGID_62_);}
</style>
<g>
	<g>
		<path d="M30.6,30.2c-0.4-0.3-1.3-0.5-1.8-1.1c-2.7-2.6-5.4-5.3-8-8c-1.2-1.2-1.7-2.6-0.3-4c1.3-1.3,2.6-0.9,3.7,0.2
			c2.9,2.8,5.8,5.7,8.5,8.6c0.8,0.8,1.2,1.9,0.3,3C32.5,29.6,31.9,30.2,30.6,30.2z"/>
		<path d="M38,22c0-0.8-0.1-1.7,0-2.5c0.2-1.6,1.2-2.8,2.8-2.4c2.8,0.7,2.2,3.1,2.2,5.1c0,1.9,0.6,4.2-2.2,4.6
			c-1.6,0.3-2.6-0.7-2.8-2.4C37.9,23.7,37.9,22.8,38,22z"/>
		<path d="M24.7,39.6c-1.6-0.1-4.2,0.5-4.2-2.3c-0.1-2.9,2.5-2.8,4.6-2.8c0.7,0,1.4,0,2.1,0c1.7,0.1,3.1,0.8,3.1,2.6
			c0,2-1.5,2.4-3.2,2.4C26.4,39.6,25.7,39.6,24.7,39.6z"/>
		<g>
			<path d="M64,36.1c-10.6,0.3-20.8,10.6-21,21.2c-0.1,2.7,0.7,4,2.5,4c2.3-0.1,2.4-1.8,2.6-3.5c1.2-9.5,7.2-15.6,16.5-16.6
				c1.9-0.2,3.9-0.4,3.6-2.9C67.9,35.6,65.8,36.1,64,36.1z"/>
			<path d="M111.1,41.9c-3.4-0.9-6.7-1.7-9.9-2.5c-1.6-0.2-2.7,0.2-3.2,1.6c-0.5,1.5,0.3,2.5,1.6,3c3.4,1.4,6.9,2.1,10.5,2.6
				c1.1,0.2,2.2-0.4,2.6-1.7C112.9,43.6,112.5,42.3,111.1,41.9z"/>
			<path d="M138.7,57.7c-0.3-24.8-26.8-40.9-48.9-29.4c-3.6,1.9-6,1.6-9.4-0.1c-22-11.1-49.1,3.9-49,30.8
				c0.1,23.4,5.7,45.9,14.4,67.6c2.6,6.5,6.9,9.2,12.8,8.6c5.4-0.6,9.2-4.8,10.4-11.5c1.1-6.5,2.8-12.8,5.8-18.7
				c2.1-4.3,4.3-9.2,9.8-9.1c5.3,0.1,7.5,4.8,9.6,8.9c3.1,6.1,4.7,12.8,5.9,19.5c1.1,6.1,5.2,10.2,10.2,10.8
				c5.7,0.7,9.5-1.5,12.4-7.9c9.4-21,14.9-42.9,16-65.9C138.7,60.2,138.7,58.9,138.7,57.7z M117.9,125.5c-1.3,2.9-3,5.1-6.6,4.6
				c-3.5-0.4-5-2.9-5.8-5.8c-1.6-6.5-2.8-13.1-5.5-19.3c-1.4-3.2-3-6.3-5.3-9c-6.2-7.3-14.8-7.1-20.7,0.4c-5,6.4-7.2,14.1-9.2,21.8
				c-0.4,1.6-0.6,3.3-1,4.9c-0.7,3.5-2,6.5-6.1,6.9c-4.2,0.4-6-2.4-7.3-5.6c-3.2-8-5.9-16.2-8-24.7C39,86,36.4,72,36.9,57.6
				c0.3-11.6,5.7-20,16-25c10.1-4.9,20-4,29.2,2.7c2.7,2,5.7,3.4,8.7,5.1c1.4,0.8,3,1.4,4-0.4c1.1-1.8,0.2-3.2-1.6-4.1
				c-1-0.5-1.9-1.1-3.1-1.8c18.4-11.5,43.1,1.4,43.5,22.6C134,80.8,127.5,103.6,117.9,125.5z"/>
		</g>
	</g>
</g>
</svg>
