<?xml version="1.0" encoding="utf-8"?>
<!-- Generator: Adobe Illustrator 23.0.3, SVG Export Plug-In . SVG Version: 6.00 Build 0)  -->
<svg version="1.1" id="Layer_1" xmlns="http://www.w3.org/2000/svg" xmlns:xlink="http://www.w3.org/1999/xlink" x="0px" y="0px"
	 viewBox="0 0 106.6 106.6" style="enable-background:new 0 0 106.6 106.6;" xml:space="preserve">
<style type="text/css">
	.st0{fill:url(#SVGID_1_);}
	.st1{fill:url(#SVGID_2_);}
	.st2{fill:url(#SVGID_3_);}
	.st3{fill:url(#SVGID_4_);}
	.st4{fill:url(#SVGID_5_);}
	.st5{fill:url(#SVGID_6_);}
	.st6{fill:url(#SVGID_7_);}
	.st7{fill:url(#SVGID_8_);}
	.st8{fill:url(#SVGID_9_);}
	.st9{fill:url(#SVGID_10_);}
	.st10{fill:#494949;}
	.st11{fill:#505050;}
	.st12{fill:#515151;}
	.st13{fill:#4A4A4A;}
	.st14{fill:#4D4D4D;}
	.st15{fill:#535353;}
	.st16{fill:#525252;}
	.st17{fill:#4F4F4F;}
	.st18{fill:#4C4C4C;}
	.st19{fill:#4E4E4E;}
	.st20{fill:#4B4B4B;}
	.st21{fill:#FFFFFF;}
	.st22{fill:url(#SVGID_11_);}
	.st23{fill:url(#SVGID_12_);}
	.st24{fill:url(#SVGID_13_);}
	.st25{fill:url(#SVGID_14_);}
	.st26{fill:url(#SVGID_15_);}
	.st27{fill:url(#SVGID_16_);}
	.st28{fill:#079EE3;}
	.st29{fill:#D63777;}
	.st30{fill:#003263;}
	.st31{fill:#FEFEFE;}
	.st32{fill:#F9F9F9;}
	.st33{fill:#FAFAFA;}
	.st34{fill:#F8F8F8;}
	.st35{fill:#EDEDED;}
	.st36{fill:#FCFCFC;}
	.st37{fill:#FDFDFD;}
	.st38{fill:#FBFBFB;}
	.st39{fill:#CFCFCF;}
	.st40{fill:#545454;}
	.st41{fill:#9D9D9D;}
	.st42{fill:#E7E7E7;}
	.st43{fill:#555555;}
	.st44{fill:#F5F5F5;}
	.st45{fill:#F4F4F4;}
	.st46{fill:#EBEBEB;}
	.st47{fill:#DFDFDF;}
	.st48{fill:#DADADA;}
	.st49{fill:#E3E3E3;}
	.st50{fill:#F1F1F1;}
	.st51{fill:#EEEEEE;}
	.st52{fill:#ECECEC;}
	.st53{fill:#1B83B8;}
	.st54{fill:#F7AD28;}
	.st55{fill:#91BF3B;}
	.st56{fill:#91BE3F;}
	.st57{fill:#033661;}
</style>
<g>
	<path class="st10" d="M87.8,68.1c0,8.7,0,17.3,0,26c0,0.7,0,1.5,0,2.2c0,1.7-0.5,3.1-2.4,3c-1.9,0-2.2-1.5-2.2-3.1
		c0-10.4-0.4-20.8,0.1-31.1c0.9-18.2-1.4-36-5.4-53.7c-0.4-1.8-0.9-3.7,1.5-4.1c2.6-0.5,2.8,1.7,3.1,3.5c1.6,8.7,3.5,17.5,4.9,26.2
		c1,6.5,0.2,13.2,0.4,19.7C87.8,60.6,87.8,64.4,87.8,68.1z"/>
	<path class="st17" d="M71.6,26.3c-2.1,0.2-3.1-0.4-3.4-1.7c-0.3-1.7,0.7-2.5,2.2-2.8c1.9-0.4,3.8-0.8,5.7-1.2
		c1.3-0.2,2.5,0.2,2.8,1.6c0.4,1.6-0.3,2.6-1.9,3C75,25.7,72.9,26.1,71.6,26.3z"/>
	<path class="st19" d="M69.5,20.3c-1.1,0-2.2-0.4-2.5-1.9c-0.3-1.4,0.4-2.4,1.8-2.7c2-0.5,4.1-0.8,6.1-1.2c1.6-0.3,2.7,0.4,3,2
		c0.2,1.4-0.7,2.3-2.1,2.6C73.8,19.5,71.8,19.9,69.5,20.3z"/>
	<path class="st18" d="M69.4,13.9c-2.2,0.2-3.3-0.3-3.6-1.7c-0.3-1.4,0.6-2.4,1.9-2.7C69.8,9,72,8.6,74.1,8.3
		c1.2-0.2,2.2,0.4,2.5,1.7c0.4,1.4-0.3,2.5-1.6,2.9C72.9,13.4,70.7,13.7,69.4,13.9z"/>
	<path class="st18" d="M77.2,26.9c1.5-0.2,2.8,0.3,3,1.9c0.2,1.6-0.8,2.4-2.3,2.7c-1.8,0.3-3.6,0.6-5.4,1c-1.5,0.3-2.8-0.1-3.1-1.7
		C69,29.2,70,28.3,71.4,28C73.3,27.5,75.3,27.3,77.2,26.9z"/>
	<path class="st13" d="M51.7,23c-0.3-2-0.5-4.1-0.8-6.2c-1.7-11,1-9.4-11-9.6c-2.4,0-3.6,0.7-3.8,3.2c-0.2,2.4-0.5,4.8-0.9,7.2
		c-1.5,10.8-1.3,9.1,7.8,9.3c1.7,0,3.4-0.1,5.1,0C51.1,27.2,52.2,25.8,51.7,23z M43.4,22.2c-3.3,0.8-4.5-0.3-3.6-3.5
		c0.4-1.4,0.5-2.9,0.5-4.3c0.1-2.1,1.1-2.5,3-2.5c2,0,2.5,0.9,2.6,2.6c0.1,1.5,0.3,2.9,0.6,4.3C47,21.4,46.7,23.3,43.4,22.2z"/>
	<g>
		<path class="st10" d="M36.5,47.6c2,0,2.2-1.5,2.3-3.1c0.2-1.7-0.4-3.1-2.1-3.2c-1.8-0.1-2.4,1.2-2.5,2.9
			C34.1,46,34.3,47.5,36.5,47.6z"/>
		<path class="st10" d="M34.3,83.1c2,0.2,2.6-1.3,2.7-3.1c0.4-9,0.9-18,1.4-27c0.1-1.7,0.2-3.7-2.2-3.9c-2.5-0.2-2.4,2-2.5,3.6
			c-0.4,6.9-0.7,13.9-1.1,20.8c0,0,0,0,0,0c-0.1,2.1-0.2,4.1-0.3,6.2C32.3,81.3,32.4,82.9,34.3,83.1z"/>
		<path class="st10" d="M67.7,89.1c0-0.2,0-0.5,0-0.7C67.6,87.1,67,86,65.8,86c-2.7,0-2.3-1.9-2.4-3.5c-0.8-15.4-1.6-30.7-2.3-46.1
			c-0.1-2.2-0.9-3.6-2.8-4.6c-10.1-5.3-20.1-5.3-30.2-0.1c-2.1,1.1-2.8,2.6-2.9,5c-0.7,15.3-1.5,30.5-2.2,45.7
			c-0.1,1.8,0.1,3.6-2.7,3.7c-1.4,0.1-1.7,1.5-1.7,2.9c0,2,0.1,3.9,0,5.9c-0.2,3.1,1.2,4.1,4.1,4c6.8-0.1,13.7,0,20.5,0
			c5.1,0,10.3,0,15.4,0C68.8,98.7,67.7,100.3,67.7,89.1z M50.4,33.8c-4.9,1-9.8,1-14.7,0.1C40.5,31.8,45.5,32,50.4,33.8z M27.5,83.2
			c0.5-7.1,0.8-14.1,1.1-21.2c0,0,0,0,0,0c0.4-7.1,0.8-14.1,1-21.2c0.1-2.2,0.4-3,2.9-2.4c7,1.6,14.1,1.5,21.1-0.1
			c2.3-0.5,3,0.1,3.1,2.4c0.6,14.1,1.4,28.3,2.2,42.4c0.1,2-0.2,2.8-2.5,2.8c-8.8-0.1-17.6-0.1-26.4,0C28,85.9,27.4,85.3,27.5,83.2z
			 M62.7,93.8C62.7,93.8,62.7,93.8,62.7,93.8C62.7,93.8,62.7,93.8,62.7,93.8c-0.8,1.2-2,0.7-3,0.7c-11.1,0-22.2,0-33.3,0
			c-1.4,0-3.3,0.7-3.4-2c-0.1-2.8,1.8-2.3,3.5-2.3c11.1,0,22.2,0,33.3,0c1,0,2.2-0.5,3,0.7C62.7,91.8,62.7,92.8,62.7,93.8z"/>
	</g>
</g>
</svg>
