<?xml version="1.0" encoding="utf-8"?><svg viewBox="0 0 600 600" xmlns="http://www.w3.org/2000/svg" xmlns:xlink="http://www.w3.org/1999/xlink"><style>:root>svg{display:none}:root>svg:target{display:block}</style><svg version="1.1" id="1" x="0" y="0" viewBox="0 0 153.6 153.6" xml:space="preserve" xmlns="http://www.w3.org/2000/svg"><style/><path d="M30.6 30.2c-.4-.3-1.3-.5-1.8-1.1-2.7-2.6-5.4-5.3-8-8-1.2-1.2-1.7-2.6-.3-4 1.3-1.3 2.6-.9 3.7.2 2.9 2.8 5.8 5.7 8.5 8.6.8.8 1.2 1.9.3 3-.5.7-1.1 1.3-2.4 1.3zM38 22c0-.8-.1-1.7 0-2.5.2-1.6 1.2-2.8 2.8-2.4 2.8.7 2.2 3.1 2.2 5.1 0 1.9.6 4.2-2.2 4.6-1.6.3-2.6-.7-2.8-2.4-.1-.7-.1-1.6 0-2.4zM24.7 39.6c-1.6-.1-4.2.5-4.2-2.3-.1-2.9 2.5-2.8 4.6-2.8h2.1c1.7.1 3.1.8 3.1 2.6 0 2-1.5 2.4-3.2 2.4-.7.1-1.4.1-2.4.1zM64 36.1c-10.6.3-20.8 10.6-21 21.2-.1 2.7.7 4 2.5 4 2.3-.1 2.4-1.8 2.6-3.5 1.2-9.5 7.2-15.6 16.5-16.6 1.9-.2 3.9-.4 3.6-2.9-.3-2.7-2.4-2.2-4.2-2.2zm47.1 5.8c-3.4-.9-6.7-1.7-9.9-2.5-1.6-.2-2.7.2-3.2 1.6-.5 1.5.3 2.5 1.6 3 3.4 1.4 6.9 2.1 10.5 2.6 1.1.2 2.2-.4 2.6-1.7.2-1.3-.2-2.6-1.6-3z"/><path d="M138.7 57.7c-.3-24.8-26.8-40.9-48.9-29.4-3.6 1.9-6 1.6-9.4-.1-22-11.1-49.1 3.9-49 30.8.1 23.4 5.7 45.9 14.4 67.6 2.6 6.5 6.9 9.2 12.8 8.6 5.4-.6 9.2-4.8 10.4-11.5 1.1-6.5 2.8-12.8 5.8-18.7 2.1-4.3 4.3-9.2 9.8-9.1 5.3.1 7.5 4.8 9.6 8.9 3.1 6.1 4.7 12.8 5.9 19.5 1.1 6.1 5.2 10.2 10.2 10.8 5.7.7 9.5-1.5 12.4-7.9 9.4-21 14.9-42.9 16-65.9v-3.6zm-20.8 67.8c-1.3 2.9-3 5.1-6.6 4.6-3.5-.4-5-2.9-5.8-5.8-1.6-6.5-2.8-13.1-5.5-19.3-1.4-3.2-3-6.3-5.3-9-6.2-7.3-14.8-7.1-20.7.4-5 6.4-7.2 14.1-9.2 21.8-.4 1.6-.6 3.3-1 4.9-.7 3.5-2 6.5-6.1 6.9-4.2.4-6-2.4-7.3-5.6-3.2-8-5.9-16.2-8-24.7C39 86 36.4 72 36.9 57.6c.3-11.6 5.7-20 16-25 10.1-4.9 20-4 29.2 2.7 2.7 2 5.7 3.4 8.7 5.1 1.4.8 3 1.4 4-.4 1.1-1.8.2-3.2-1.6-4.1-1-.5-1.9-1.1-3.1-1.8 18.4-11.5 43.1 1.4 43.5 22.6.4 24.1-6.1 46.9-15.7 68.8z"/></svg><svg version="1.1" id="2" x="0" y="0" viewBox="0 0 106.6 106.6" xml:space="preserve" xmlns="http://www.w3.org/2000/svg"><style>.bst10{fill:#494949}.bst18{fill:#4c4c4c}</style><path class="bst10" d="M87.8 68.1v28.2c0 1.7-.5 3.1-2.4 3-1.9 0-2.2-1.5-2.2-3.1 0-10.4-.4-20.8.1-31.1.9-18.2-1.4-36-5.4-53.7-.4-1.8-.9-3.7 1.5-4.1 2.6-.5 2.8 1.7 3.1 3.5 1.6 8.7 3.5 17.5 4.9 26.2 1 6.5.2 13.2.4 19.7v11.4z"/><path d="M71.6 26.3c-2.1.2-3.1-.4-3.4-1.7-.3-1.7.7-2.5 2.2-2.8l5.7-1.2c1.3-.2 2.5.2 2.8 1.6.4 1.6-.3 2.6-1.9 3-2 .5-4.1.9-5.4 1.1zM69.5 20.3c-1.1 0-2.2-.4-2.5-1.9-.3-1.4.4-2.4 1.8-2.7 2-.5 4.1-.8 6.1-1.2 1.6-.3 2.7.4 3 2 .2 1.4-.7 2.3-2.1 2.6-2 .4-4 .8-6.3 1.2z"/><path class="bst18" d="M69.4 13.9c-2.2.2-3.3-.3-3.6-1.7-.3-1.4.6-2.4 1.9-2.7 2.1-.5 4.3-.9 6.4-1.2 1.2-.2 2.2.4 2.5 1.7.4 1.4-.3 2.5-1.6 2.9-2.1.5-4.3.8-5.6 1zm7.8 13c1.5-.2 2.8.3 3 1.9.2 1.6-.8 2.4-2.3 2.7-1.8.3-3.6.6-5.4 1-1.5.3-2.8-.1-3.1-1.7-.4-1.6.6-2.5 2-2.8 1.9-.5 3.9-.7 5.8-1.1z"/><path d="M51.7 23c-.3-2-.5-4.1-.8-6.2-1.7-11 1-9.4-11-9.6-2.4 0-3.6.7-3.8 3.2-.2 2.4-.5 4.8-.9 7.2-1.5 10.8-1.3 9.1 7.8 9.3 1.7 0 3.4-.1 5.1 0 3 .3 4.1-1.1 3.6-3.9zm-8.3-.8c-3.3.8-4.5-.3-3.6-3.5.4-1.4.5-2.9.5-4.3.1-2.1 1.1-2.5 3-2.5 2 0 2.5.9 2.6 2.6.1 1.5.3 2.9.6 4.3.5 2.6.2 4.5-3.1 3.4z"/><path class="bst10" d="M36.5 47.6c2 0 2.2-1.5 2.3-3.1.2-1.7-.4-3.1-2.1-3.2-1.8-.1-2.4 1.2-2.5 2.9-.1 1.8.1 3.3 2.3 3.4zm-2.2 35.5c2 .2 2.6-1.3 2.7-3.1.4-9 .9-18 1.4-27 .1-1.7.2-3.7-2.2-3.9-2.5-.2-2.4 2-2.5 3.6-.4 6.9-.7 13.9-1.1 20.8-.1 2.1-.2 4.1-.3 6.2 0 1.6.1 3.2 2 3.4z"/><path class="bst10" d="M67.7 89.1v-.7c-.1-1.3-.7-2.4-1.9-2.4-2.7 0-2.3-1.9-2.4-3.5-.8-15.4-1.6-30.7-2.3-46.1-.1-2.2-.9-3.6-2.8-4.6-10.1-5.3-20.1-5.3-30.2-.1-2.1 1.1-2.8 2.6-2.9 5-.7 15.3-1.5 30.5-2.2 45.7-.1 1.8.1 3.6-2.7 3.7-1.4.1-1.7 1.5-1.7 2.9 0 2 .1 3.9 0 5.9-.2 3.1 1.2 4.1 4.1 4 6.8-.1 13.7 0 20.5 0h15.4c10.2-.2 9.1 1.4 9.1-9.8zM50.4 33.8c-4.9 1-9.8 1-14.7.1 4.8-2.1 9.8-1.9 14.7-.1zM27.5 83.2c.5-7.1.8-14.1 1.1-21.2.4-7.1.8-14.1 1-21.2.1-2.2.4-3 2.9-2.4 7 1.6 14.1 1.5 21.1-.1 2.3-.5 3 .1 3.1 2.4.6 14.1 1.4 28.3 2.2 42.4.1 2-.2 2.8-2.5 2.8-8.8-.1-17.6-.1-26.4 0-2 0-2.6-.6-2.5-2.7zm35.2 10.6c-.8 1.2-2 .7-3 .7H26.4c-1.4 0-3.3.7-3.4-2-.1-2.8 1.8-2.3 3.5-2.3h33.3c1 0 2.2-.5 3 .7-.1.9-.1 1.9-.1 2.9z"/></svg><svg version="1.1" id="3" x="0" y="0" viewBox="0 0 106.6 106.6" xml:space="preserve" xmlns="http://www.w3.org/2000/svg"><style/><path d="M92.7 16.3C84.9 6.9 71.4 4.2 60.5 10c-4.9 2.6-9.6 2.6-14.4 0-10.7-5.7-24.1-3.2-32 6-8 9.2-8.6 22.9-.9 32.4 4.8 5.9 6.9 12.2 5.8 18.8-1 12 2.4 21.5 10.5 29.3 2.6 2.5 5.5 4.1 9.2 2.4 3.6-1.6 4.6-4.6 4.6-8.4 0-7.2.9-14.4 3.7-21.1 1.3-3 2.4-7 6.2-6.8 3.5.1 4.7 3.9 5.9 6.8 2.9 7 3.8 14.4 3.8 21.9 0 3.5 1.3 6.2 4.6 7.7s6.2.4 8.7-1.9c8.3-7.7 12.2-17.3 11.1-28.6-.8-7.5 1.1-13.9 5.8-19.7 7.8-9.8 7.5-23.1-.4-32.5zM65.9 38.5c.5 3.2-2.3 1.3-3.6 1.9-3.6-.6-5.7 1.5-7.5 4.1-.4.6-.8 2.1-2.1 1.1-1.4-1-.3-1.8.4-2.6 5.5-5.5 11-11.1 16.6-16.6.5-.5 1-1.7 2-.6.9 1 .6 1.8-.5 2.3-4.6 2-6 5.5-5.3 10.4zm-.5-14.1c-4.8 4.1-9.2 8.8-13.5 13.4-2.2 2.4-4.3 3.6-7.2 2.3C53.8 31 63 21.9 72.2 12.8c-2.9 3.4-3 8.3-6.8 11.6zm-4-9L41.5 35.3c-1.5-3.8-1.5-3.8 1.4-6.6l4.4-4.4c4.2-4.1 7.8-9.3 14.1-8.9zM44 15.3c1.3-1.3 2.1.3 3 .8.9.5.7 1.1.1 1.7-3.4 3.3-6.7 6.7-10 10-.2.2-.6.4-.9.6-1.1-.5-2.4-.9-1.5-2.6 2.3-4.1 6-7.2 9.3-10.5zm-9.4-3c1.4-1.5 3.3-.5 5.2.3-1.3 1.2-1.8 3.4-3.7 2.9-.8-.2-2.5-2.1-1.5-3.2zm48.1 56.9c1 9.3-2.3 17.2-9 23.8-1.3 1.2-2.6 2.4-4.5 1.6-1.8-.8-1.6-2.5-1.7-4.1-.1-8.1-1.1-16.1-4.4-23.6-1.9-4.4-4.2-8.9-10-8.9-5.7 0-8.1 4.5-10 8.9C40 74 39 81.8 38.7 89.6c-.1 1.9.5 4.1-2 5-2.3.8-3.6-1-4.9-2.4-5.6-5.8-8.4-12.8-8.5-20.5.2-3.3.7-6.2.6-9.1-.2-6.3-2.7-11.7-6.7-16.7-9-11.3-4.7-27.5 8.5-32.9 2-.8 3.7-1.4 4.2 1.6.2.9.8 1.8 1.4 2.5 1.6 1.8 1.3 3.3 0 5.2-3.4 5-2.9 7 2.1 10.1 2 1.2 2.6 2.4 2.4 4.7-.5 6.3.9 7.8 7 7.6 2.2-.1 3.6.5 4.9 2.3 3.8 5.2 6.8 5.2 10.6.1 1.3-1.7 2.6-2.5 4.9-2.4 6.3.2 7.7-1.3 7-7.9-.2-2 .4-3.1 2.1-4.2 5.5-3.4 6-5.3 2.4-10.6-1.5-2.3-.9-3.9.6-5.5 1.1-1.3.8-3.9 2.4-4.2 2.3-.4 4.4 1.2 6.3 2.4 10.4 6.6 13.1 20.7 5.5 30.4-5.4 7.4-7.8 15-6.8 24.1z"/></svg><svg version="1.1" id="4" x="0" y="0" viewBox="0 0 106.6 106.6" xml:space="preserve" xmlns="http://www.w3.org/2000/svg"><style>.dst10{fill:#494949}</style><path class="dst10" d="M39.3 30.1c5.6-2.4 8.4-7.8 7.3-13.3C45.4 11.1 40.7 7.1 35 7c-5.8-.1-10.8 3.8-12 9.3-1.3 5.6 1.3 11.1 6.8 13.6 2 .9 2.8 1.8 2.7 4-.2 5.2-.1 10.5 0 15.8 0 1.6-.2 2.6-2.1 2.5-3-.2-3.7 1.5-3.7 4.1.1 6.5 0 13 0 19.4 0 6.7.1 13.4 0 20.2 0 2.6.8 3.9 3.6 3.8 3-.1 6.1-.1 9.2 0 2.6.1 3.4-1.1 3.4-3.5V55.9c0-2.2-.6-3.7-3-3.6-2.5.2-2.7-1.1-2.7-3.1.1-5.1 0-10.3-.1-15.4-.1-2 .4-2.9 2.2-3.7zm-1 29.7c-.3 3.1 0 6.3-.1 9.5 0 1.9.7 3.9-2.2 4.9-1.7.6-1.3 2.8.5 3.7.9.5 1.9.5 1.7 1.8-.1 1.3-1.1 1.1-1.9 1.1-1.3.2-2.1 1-2.2 2.2-.1 1.4.7 2.3 2.2 2.4 1 .1 2 0 1.9 1.5-.1 1.8-1.5 1.2-2.4 1.3-1.6.1-3.4 0-3.4 2.3 0 2.2 1.7 2.3 3.4 2.3.8 0 2.2-.6 2.3.9.1 1.9-1.5 1-2.4 1.2-3.5.7-4.6-.7-4.4-4.2.3-5 .1-10 .1-15 0-5.4.2-10.7-.1-16.1-.2-3.1 1.4-2.8 3.5-2.9 2.4-.1 3.7.3 3.5 3.1zm-3.5-33.4c-4 0-7.3-3.1-7.5-7.1-.2-4 3.2-7.6 7.2-7.8 4-.1 7.5 3.2 7.5 7.3.1 4.3-3.1 7.6-7.2 7.6zm49.1 28.7c0-1.3-.3-2.9-1.8-2.7-4.9.4-3.9-2.9-3.9-5.7 0-2.2-.1-4.4 0-6.6.2-2.6-.7-4.7-2.5-6.6-2.7-2.8-5.2-5.8-7.8-8.7-3.1-3.5-3.1-3.9.9-6.2 4-2.3 8.1-4.6 12.1-6.8 1.4-.8 2.6-1.8 1.7-3.5-1-1.9-2.5-1.4-4.1-.6-4.5 2.5-8.9 5-13.4 7.5-5.2 2.9-5.8 7-1.8 11.5 2.8 3.2 5.7 6.4 8.5 9.6.9 1 1.6 2.1 1.5 3.5-.1 3.3-.1 6.6 0 9.9 0 1.7-.4 2.6-2.2 2.4-2.9-.3-3.5 1.5-3.5 3.9v19.8h.1V96c0 2.4.7 3.7 3.4 3.6 3.2-.1 6.4-.1 9.5 0 2.1.1 3.1-.8 3.1-3 .2-13.9.2-27.7.2-41.5zm-4.5 4.2c-.3 3.4 0 6.8-.1 10.3 0 1.8.5 3.5-2.2 4.6-1.8.7-1.4 3 .8 3.8 1 .4 1.4.7 1.3 1.8-.1 1-.8 1.1-1.6 1.1-1.4.1-2.3.8-2.4 2.2 0 1.5.8 2.2 2.3 2.3.9 0 1.7.1 1.7 1.4 0 1.5-1 1.4-2 1.4-.6 0-1.2-.1-1.8 0-1.2.2-2 .9-2 2.2 0 1.3.7 2.1 1.9 2.3 1 .1 2 0 2.9.1 1 .1 1.3 1.2.8 1.6-1.6 1.2-3.5.4-5.3.5-1.5.1-1.2-1.2-1.2-2.1V75.6c0-5.4.2-10.8-.1-16.1-.2-3 1.5-2.7 3.4-2.7 1.8 0 3.8-.6 3.6 2.5z"/></svg><svg version="1.1" id="5" x="0" y="0" viewBox="0 0 106.6 106.6" xml:space="preserve" xmlns="http://www.w3.org/2000/svg"><style>.est10{fill:#494949}</style><path class="est10" d="M35.9 16.5c-1.6 0-3 .4-3.1 2.3 0 1.8 1.2 2.4 2.9 2.4s2.9-.6 2.9-2.5c0-1.7-1.2-2.3-2.7-2.2zm-8 2.8c-3.3 2.5-4.9 6-5.4 10.3.1 1.1.4 2.4 2.1 2.7 1.7.2 2.6-.8 2.7-2.3.2-3 1.4-5.3 3.7-7.2 1.1-.9 1.4-2 .4-3.2-1-1.4-2.3-1.2-3.5-.3z"/><path class="est10" d="M59.3 10c-4 2.1-8 2.1-12 0-13.6-7.2-30 .3-33.4 15.2-2.1 9.3 2.7 18.4 11.4 19.9 4.9.8 5.5 3.7 6.5 7.4h-3.6c-1.6 0-3.5 0-3.5 2.2 0 2.1 1.7 2.7 3.4 2.3 5-1 7.3 1.5 8.4 6 .2.9.8 1.8 1.1 2.7.8 2 2.7 4.5 2.1 6-.8 2.2-3.8.4-5.9.9h-.4c-1.4.2-2.3.9-2.3 2.3 0 1.5 1 2.2 2.4 2.2 1.3.1 2.7 0 4 0 5.3 0 5.3 0 6.6 5.5h-3.3c-1.6-.1-2.7.6-2.8 2.2 0 1.6 1.2 2.6 2.6 2.3 5.5-1.2 7.2 2.2 8.4 6.5.4 1.3 1 2.5 1.5 3.7.5 1.1 1.2 1.9 2.5 1.8 1.1 0 1.8-.7 2.2-1.7.4-.9.8-1.8 1.1-2.7 1.6-4.5 3-9.3 9.6-7.6 1.3.3 2.4-.7 2.4-2.2 0-1.7-1.1-2.3-2.7-2.3-1.3 0-2.5-.1-4.1-.2 1.3-3.1 2.5-5.8 3.5-8.5 1.5-4.2 2.9-8.4 8.9-7 1.4.3 2.6-.6 2.6-2.4 0-1.5-1.1-2.1-2.4-2.2-1.2-.1-2.4-.1-3.7-.2.6-3.7 2-6.1 6.1-5.3.5.1 1 0 1.5 0 1.4-.1 2.3-.8 2.4-2.3 0-1.5-.9-2.2-2.3-2.3-1.1-.1-2.2 0-3.6 0 1-4.3 2.4-6.9 7.1-7.7 7-1.2 11.2-7.6 11.2-14.8.4-17-18-27.8-33.5-19.7zm-6.2 80.3c-.5-1-2-1.8-.7-3 .3-.3 1.4-.2 1.6.1.9 1.2-.3 2-.9 2.9zm8-27.9h-8c-1.6 0-3.1.6-3.1 2.4 0 1.8 1.4 2.4 3.1 2.4 2.6 0 5.1.1 7.7 0 1.9-.1 2.4.4 1.5 2.3-1.7 3.8-3.2 7.6-4.8 11.4-1.4 3.4-4.4 1.8-6.6 1.8-2.2-.1-2-2.7-2.7-4.2-.4-1 .7-1 1.4-1.1 1.1-.1 2.2-.1 3.3-.2 1.1-.2 1.7-1.1 1.7-2.1s-.6-1.8-1.6-2.2c-.2-.1-.5-.2-.7-.1-7.1 1.7-8.3-3.6-10-8.3-.8-2.3-1.8-4.5-2.9-7.2h27.5c-.9 5-1 5.1-5.8 5.1zm10.1-14.2c-1.1 3.2-2.7 4.5-6.3 4.3-7.4-.3-14.9-.1-22.3-.1-5.9 0-5.9 0-7.6-6.4 4-.7 8-.3 12-.4 7.4-.1 14.9-.1 22.3-.2 2.3.1 2.7.6 1.9 2.8zm5.3-7.2H53.1v.1H30.4c-8.8 0-13.8-6.3-11.8-14.8C21.4 13.8 35 8.2 46.2 14.6c4.6 2.7 9.8 2.6 14.3 0 11.1-6.5 24.8-.8 27.7 11.7C90 34.5 85 40.9 76.5 41z"/></svg><svg viewBox="0 0 80.588 61.158" id="done" xmlns="http://www.w3.org/2000/svg"><path d="M29.658 61.157a4.673 4.673 0 01-3.305-1.369L1.37 34.808a4.674 4.674 0 010-6.611 4.673 4.673 0 016.611 0l21.485 21.481 42.96-48.117a4.675 4.675 0 116.975 6.227L33.145 59.595a4.678 4.678 0 01-3.355 1.56l-.132.002z"/></svg><svg viewBox="0 0 32 32" id="email" xmlns="http://www.w3.org/2000/svg"><path d="M25 4H7a5 5 0 00-5 5v14a5 5 0 005 5h18a5 5 0 005-5V9a5 5 0 00-5-5zM7 6h18a3 3 0 012.4 1.22h-.08L18 15.79a3 3 0 01-4.06 0L4.68 7.26H4.6A3 3 0 017 6zm18 20H7a3 3 0 01-3-3V9.36l8.62 7.9a5 5 0 006.76 0L28 9.36V23a3 3 0 01-3 3z"/></svg><svg viewBox="0 0 96 96" id="faq" xmlns="http://www.w3.org/2000/svg"><path d="M82.607 62.107L52.606 26.105a6.203 6.203 0 00-9.212 0L13.393 62.107a5.999 5.999 0 109.211 7.688L48 39.325l25.396 30.47a5.999 5.999 0 109.211-7.688z"/></svg><svg viewBox="0 0 502.664 502.664" id="icon" xmlns="http://www.w3.org/2000/svg"><path d="M153.821 358.226L0 274.337v-46.463l153.821-83.414v54.574L46.636 250.523l107.185 53.431v54.272zm26.273 29.358L282.103 115.08h32.227L212.084 387.584h-31.99zm168.749-29.358v-54.272l107.164-52.999-107.164-52.59v-53.927l153.821 83.522v46.183l-153.821 84.083z"/></svg><svg viewBox="0 0 600 600" id="insta" xmlns="http://www.w3.org/2000/svg"><path d="M300 44c-69.526 0-78.244.294-105.549 1.54-27.248 1.244-45.858 5.57-62.142 11.9-16.834 6.542-31.11 15.295-45.342 29.527C72.735 101.2 63.98 115.475 57.439 132.31c-6.329 16.283-10.656 34.892-11.9 62.14C44.295 221.757 44 230.474 44 300c0 69.524.294 78.242 1.54 105.547 1.243 27.248 5.57 45.857 11.9 62.14 6.541 16.835 15.295 31.111 29.527 45.344 14.231 14.232 28.508 22.985 45.342 29.528 16.284 6.327 34.894 10.655 62.142 11.898 27.305 1.246 36.023 1.54 105.549 1.54 69.524 0 78.242-.294 105.547-1.54 27.248-1.243 45.858-5.57 62.141-11.898 16.834-6.543 31.11-15.296 45.344-29.528 14.231-14.233 22.985-28.509 29.527-45.343 6.328-16.284 10.656-34.893 11.899-62.141 1.245-27.305 1.54-36.023 1.54-105.548 0-69.526-.295-78.243-1.54-105.548-1.243-27.249-5.571-45.858-11.899-62.141-6.542-16.835-15.296-31.111-29.527-45.343-14.233-14.232-28.51-22.985-45.344-29.527-16.283-6.33-34.893-10.656-62.14-11.9C378.241 44.294 369.523 44 300 44zm0 46.126c68.354 0 76.45.26 103.445 1.492 24.96 1.14 38.514 5.31 47.535 8.815 11.95 4.644 20.477 10.192 29.435 19.15 8.959 8.957 14.506 17.486 19.15 29.435 3.506 9.02 7.676 22.575 8.815 47.535 1.231 26.994 1.492 35.091 1.492 103.446 0 68.354-.26 76.451-1.492 103.445-1.139 24.96-5.31 38.515-8.815 47.536-4.644 11.949-10.191 20.477-19.15 29.435-8.958 8.958-17.486 14.506-29.435 19.15-9.02 3.506-22.576 7.676-47.535 8.814-26.99 1.232-35.086 1.493-103.445 1.493-68.36 0-76.455-.261-103.447-1.493-24.96-1.138-38.514-5.308-47.535-8.814-11.95-4.644-20.477-10.192-29.436-19.15-8.958-8.958-14.506-17.486-19.149-29.435-3.506-9.021-7.676-22.576-8.815-47.536-1.232-26.994-1.492-35.09-1.492-103.445 0-68.355.26-76.452 1.492-103.446 1.139-24.96 5.31-38.515 8.815-47.535 4.643-11.949 10.191-20.478 19.15-29.435 8.958-8.958 17.486-14.506 29.435-19.15 9.02-3.505 22.576-7.676 47.535-8.815 26.995-1.231 35.092-1.492 103.447-1.492z"/><path d="M300 385.332c-47.13 0-85.334-38.205-85.334-85.333 0-47.129 38.205-85.333 85.334-85.333 47.127 0 85.332 38.204 85.332 85.333 0 47.128-38.205 85.333-85.332 85.333zm0-216.792c-72.604 0-131.46 58.855-131.46 131.46 0 72.602 58.856 131.458 131.46 131.458 72.602 0 131.458-58.856 131.458-131.459 0-72.604-58.856-131.46-131.458-131.46zm167.372-5.194c0 16.966-13.754 30.72-30.72 30.72s-30.72-13.754-30.72-30.72 13.754-30.72 30.72-30.72 30.72 13.754 30.72 30.72z"/></svg><svg version="1.1" id="map" x="0" y="0" viewBox="0 0 32 32" xml:space="preserve" xmlns="http://www.w3.org/2000/svg"><style>.kst1{fill:none;stroke:#000;stroke-width:2;stroke-linejoin:round;stroke-miterlimit:10}</style><path class="kst1" d="M25 13c0 8-9 15-9 15s-9-7-9-15c0-5 4-9 9-9s9 4 9 9z"/><circle class="kst1" cx="16" cy="13" r="3"/></svg><svg viewBox="0 0 24 24" id="marker" xmlns="http://www.w3.org/2000/svg"><path d="M12 0a8 8 0 00-8 8c0 1.421.382 2.75 1.031 3.906.108.192.221.381.344.563L12 24l6.625-11.531c.102-.151.19-.311.281-.469l.063-.094A7.954 7.954 0 0020 8a8 8 0 00-8-8zm0 4a4 4 0 110 8 4 4 0 010-8z"/><path d="M12 3a5 5 0 100 10 5 5 0 000-10zm0 2a3 3 0 110 6 3 3 0 010-6z"/></svg><svg viewBox="0 0 50 50" id="markerF" xmlns="http://www.w3.org/2000/svg"><path d="M24.43 40.153a1 1 0 001.658 0l9.436-14.018a11.239 11.239 0 001.725-5.976c0-6.376-5.383-11.564-12-11.564s-12 5.188-12 11.564c0 2.114.599 4.184 1.749 6.012l9.432 13.982zm.82-29.559c5.514 0 10 4.291 10 9.564a9.215 9.215 0 01-1.402 4.886l-8.59 12.76-8.584-12.726a9.232 9.232 0 01-1.424-4.92c0-5.273 4.486-9.564 10-9.564z"/><path d="M25.25 25.616c3.135 0 5.686-2.467 5.686-5.5s-2.55-5.5-5.686-5.5-5.686 2.467-5.686 5.5 2.551 5.5 5.686 5.5zm0-9c2.032 0 3.686 1.57 3.686 3.5s-1.653 3.5-3.686 3.5-3.686-1.57-3.686-3.5 1.654-3.5 3.686-3.5z"/></svg><svg viewBox="0 0 24 24" stroke-width="2" stroke-linecap="round" stroke-linejoin="round" class="nfeather nfeather-phone" id="phone" xmlns="http://www.w3.org/2000/svg"><path d="M22 16.92v3a2 2 0 01-2.18 2 19.79 19.79 0 01-8.63-3.07 19.5 19.5 0 01-6-6 19.79 19.79 0 01-3.07-8.67A2 2 0 014.11 2h3a2 2 0 012 1.72 12.84 12.84 0 00.7 2.81 2 2 0 01-.45 2.11L8.09 9.91a16 16 0 006 6l1.27-1.27a2 2 0 012.11-.45 12.84 12.84 0 002.81.7A2 2 0 0122 16.92z"/></svg><svg viewBox="0 0 32 32" id="scrollTop" xmlns="http://www.w3.org/2000/svg"><defs><style>.ocls-1{fill:none;stroke:#fff;stroke-linecap:round;stroke-linejoin:round;stroke-width:3px}</style></defs><path class="ocls-1" d="M15.87 3l.26 26m-.26-26l5.04 3.95M15.87 3l-4.96 4.05" id="oarrow-top"/></svg></svg>